<svg width="100" height="86" viewBox="0 0 149 86" fill="none" xmlns="http://www.w3.org/2000/svg">
<g filter="url(#filter0_f_11:43)">
<path d="M130.507 19.0034C125.272 14.3233 118.304 11.5155 110.915 11.1085C103.527 10.7015 96.2268 12.7234 90.389 16.7936C85.0583 13.09 78.4999 11.079 71.7491 11.0778C64.9983 11.0767 58.4394 13.0854 53.1069 16.7871C47.0253 12.5198 39.3516 10.4891 31.6524 11.1096C23.9533 11.7301 16.8093 14.955 11.6789 20.1259C6.5485 25.2968 3.81866 32.0238 4.04666 38.9335C4.27466 45.8432 7.44331 52.4147 12.9057 57.3059L31.5605 73.99C31.575 74.0025 31.5894 74.0146 31.6057 74.0275C31.6219 74.0405 31.6265 74.0465 31.6368 74.0558C31.6563 74.0732 31.677 74.0889 31.6964 74.1063C31.993 74.3687 32.2939 74.6243 32.5995 74.8734C32.7566 75.0022 32.9156 75.127 33.0754 75.2526C33.2051 75.3535 33.3355 75.4536 33.4664 75.5526C38.7841 79.5817 45.4906 81.8521 52.459 81.9813C59.4278 82.1109 66.2337 80.0921 71.7342 76.2636C77.572 80.3336 84.8723 82.3556 92.2606 81.9486C99.6494 81.5416 106.617 78.7338 111.852 74.0538L130.507 57.3721C136.189 52.2802 139.379 45.3807 139.379 38.1877C139.379 30.9946 136.188 24.0953 130.507 19.0034ZM71.7432 18.1442C76.1786 18.1416 80.515 19.3158 84.2035 21.5181C87.8925 23.7203 90.7674 26.8517 92.4651 30.5158C94.1629 34.1799 94.6067 38.212 93.7407 42.1018C92.8747 45.9916 90.7376 49.5642 87.5999 52.3675L71.7432 66.5465L55.8861 52.3675C52.7484 49.5642 50.6113 45.9916 49.7453 42.1017C48.8792 38.2119 49.3231 34.1797 51.0209 30.5156C52.7186 26.8515 55.5939 23.7201 59.2824 21.5179C62.9714 19.3157 67.3079 18.1415 71.7432 18.1442ZM30.6624 54.87C30.6544 52.2354 31.2308 49.6258 32.3582 47.1919C33.4857 44.758 35.1419 42.5482 37.2308 40.6905L41.4512 36.9165C41.2469 40.6888 41.9277 44.4577 43.4498 47.9806C44.972 51.5034 47.3018 54.7024 50.2894 57.3721L65.8219 71.2617C62.4716 73.3601 58.5415 74.596 54.4597 74.8343C50.3783 75.0725 46.3017 74.3045 42.6747 72.6135C39.0477 70.9222 36.0094 68.3736 33.8911 65.2444C31.7728 62.1156 30.6557 58.5265 30.6615 54.8688L30.6624 54.87ZM18.5015 52.3008C14.5323 48.7524 12.1957 44.0018 11.9532 38.9876C11.7107 33.9734 13.5799 29.0602 17.1916 25.2186C20.8032 21.3769 25.8948 18.8861 31.4603 18.2383C37.0259 17.5904 42.6609 18.8327 47.252 21.7195L31.6341 35.6854C28.808 38.1989 26.5674 41.1887 25.0421 44.4818C23.5169 47.7748 22.7371 51.3057 22.7481 54.87C22.7481 55.2907 22.7591 55.7098 22.7811 56.1277L18.5015 52.3008ZM90.3994 74.9223C85.8177 74.932 81.3445 73.6771 77.59 71.3288L93.1989 57.3721C96.1866 54.7024 98.516 51.5034 100.038 47.9805C101.56 44.4576 102.241 40.6888 102.037 36.9165L106.257 40.6905C109.394 43.495 111.529 47.0682 112.394 50.9581C113.26 54.8478 112.815 58.8798 111.118 62.544C109.42 66.2082 106.546 69.3398 102.858 71.5432C99.1703 73.7465 94.8347 74.9223 90.3994 74.9223ZM124.911 52.3675L120.706 56.1277C120.727 55.7102 120.738 55.2911 120.739 54.87C120.75 51.3057 119.97 47.7748 118.445 44.4817C116.919 41.1887 114.678 38.1989 111.852 35.6854L96.2453 21.7288C100.845 18.8668 106.476 17.6483 112.029 18.3132C117.583 18.9781 122.657 21.4781 126.253 25.3212C129.848 29.1642 131.705 34.0716 131.456 39.0774C131.208 44.0831 128.873 48.8243 124.911 52.3675Z" fill="#292C44" fill-opacity="0.4"/>
</g>
<path d="M130.507 8.00338C125.272 3.32327 118.304 0.515511 110.915 0.108525C103.527 -0.298461 96.2268 1.72338 90.389 5.79357C85.0583 2.09 78.4999 0.0790071 71.7491 0.0778374C64.9983 0.0766677 58.4394 2.08539 53.1069 5.7871C47.0253 1.51979 39.3516 -0.510905 31.6524 0.109591C23.9533 0.730085 16.8093 3.95498 11.6789 9.12589C6.5485 14.2968 3.81866 21.0238 4.04666 27.9335C4.27466 34.8432 7.44331 41.4147 12.9057 46.3059L31.5605 62.99C31.575 63.0025 31.5894 63.0146 31.6057 63.0275C31.6219 63.0405 31.6265 63.0465 31.6368 63.0558C31.6563 63.0732 31.677 63.0889 31.6964 63.1063C31.993 63.3687 32.2939 63.6243 32.5995 63.8734C32.7566 64.0022 32.9156 64.127 33.0754 64.2526C33.2051 64.3535 33.3355 64.4536 33.4664 64.5526C38.7841 68.5817 45.4906 70.8521 52.459 70.9813C59.4278 71.1109 66.2337 69.0921 71.7342 65.2636C77.572 69.3336 84.8723 71.3556 92.2606 70.9486C99.6494 70.5416 106.617 67.7338 111.852 63.0538L130.507 46.3721C136.189 41.2802 139.379 34.3807 139.379 27.1877C139.379 19.9946 136.188 13.0953 130.507 8.00338ZM71.7432 7.14417C76.1786 7.14162 80.515 8.31582 84.2035 10.5181C87.8925 12.7203 90.7674 15.8517 92.4651 19.5158C94.1629 23.1799 94.6067 27.212 93.7407 31.1018C92.8747 34.9916 90.7376 38.5642 87.5999 41.3675L71.7432 55.5465L55.8861 41.3675C52.7484 38.5642 50.6113 34.9916 49.7453 31.1017C48.8792 27.2119 49.3231 23.1797 51.0209 19.5156C52.7186 15.8515 55.5939 12.7201 59.2824 10.5179C62.9714 8.31569 67.3079 7.14154 71.7432 7.14417ZM30.6624 43.87C30.6544 41.2354 31.2308 38.6258 32.3582 36.1919C33.4857 33.758 35.1419 31.5482 37.2308 29.6905L41.4512 25.9165C41.2469 29.6888 41.9277 33.4577 43.4498 36.9806C44.972 40.5034 47.3018 43.7024 50.2894 46.3721L65.8219 60.2617C62.4716 62.3601 58.5415 63.596 54.4597 63.8343C50.3783 64.0725 46.3017 63.3045 42.6747 61.6135C39.0477 59.9222 36.0094 57.3736 33.8911 54.2444C31.7728 51.1156 30.6557 47.5265 30.6615 43.8688L30.6624 43.87ZM18.5015 41.3008C14.5323 37.7524 12.1957 33.0018 11.9532 27.9876C11.7107 22.9734 13.5799 18.0602 17.1916 14.2186C20.8032 10.3769 25.8948 7.88613 31.4603 7.23828C37.0259 6.59044 42.6609 7.83267 47.252 10.7195L31.6341 24.6854C28.808 27.1989 26.5674 30.1887 25.0421 33.4818C23.5169 36.7748 22.7371 40.3057 22.7481 43.87C22.7481 44.2907 22.7591 44.7098 22.7811 45.1277L18.5015 41.3008ZM90.3994 63.9223C85.8177 63.932 81.3445 62.6771 77.59 60.3288L93.1989 46.3721C96.1866 43.7024 98.516 40.5034 100.038 36.9805C101.56 33.4576 102.241 29.6888 102.037 25.9165L106.257 29.6905C109.394 32.495 111.529 36.0682 112.394 39.9581C113.26 43.8478 112.815 47.8798 111.118 51.544C109.42 55.2082 106.546 58.3398 102.858 60.5432C99.1703 62.7465 94.8347 63.9223 90.3994 63.9223ZM124.911 41.3675L120.706 45.1277C120.727 44.7102 120.738 44.2911 120.739 43.87C120.75 40.3057 119.97 36.7748 118.445 33.4817C116.919 30.1887 114.678 27.1989 111.852 24.6854L96.2453 10.7288C100.845 7.86683 106.476 6.64834 112.029 7.31322C117.583 7.97807 122.657 10.4781 126.253 14.3212C129.848 18.1642 131.705 23.0716 131.456 28.0774C131.208 33.0831 128.873 37.8243 124.911 41.3675Z" fill="#292C44"/>
<defs>
<filter id="filter0_f_11:43" x="0.0334473" y="7" width="152.491" height="79" filterUnits="userSpaceOnUse" color-interpolation-filters="sRGB">
<feFlood flood-opacity="0" result="BackgroundImageFix"/>
<feBlend mode="normal" in="SourceGraphic" in2="BackgroundImageFix" result="shape"/>
<feGaussianBlur stdDeviation="2" result="effect1_foregroundBlur_11:43"/>
</filter>
</defs>
</svg>
