<svg width="50" height="50" viewBox="0 0 50 50" fill="none" xmlns="http://www.w3.org/2000/svg">
<path fill-rule="evenodd" clip-rule="evenodd" d="M20.4164 2.27467C20.4169 1.80071 20.2694 1.33847 19.9946 0.952652C19.7199 0.566831 19.3316 0.276732 18.8841 0.122951C18.4366 -0.0308305 17.9524 -0.0405975 17.4991 0.0950166C17.0458 0.230631 16.6462 0.504839 16.3561 0.879269L0.477921 21.333C0.168172 21.7319 0 22.2229 0 22.7284C0 23.2338 0.168172 23.7248 0.477921 24.1238L16.3561 44.5775C16.6462 44.9519 17.0458 45.2262 17.4991 45.3618C17.9524 45.4974 18.4366 45.4876 18.8841 45.3338C19.3316 45.18 19.7199 44.8899 19.9946 44.5041C20.2694 44.1183 20.4169 43.6561 20.4164 43.1821V34.1143C32.6177 34.3688 38.4791 36.6892 41.4233 39.2118C44.2224 41.6094 44.7351 44.4298 45.2681 47.3842L45.4065 48.1455C45.5083 48.6903 45.8053 49.179 46.2416 49.5198C46.6778 49.8605 47.2234 50.0298 47.7755 49.9957C48.3277 49.9616 48.8483 49.7266 49.2396 49.3348C49.6309 48.943 49.8657 48.4215 49.9 47.8683C50.2879 41.6231 49.705 32.5734 45.3022 25.0033C41.0286 17.6559 33.3322 12.0061 20.4164 11.4152V2.27467Z" fill="url(#paint0_linear_11:36)"/>
<defs>
<linearGradient id="paint0_linear_11:36" x1="25" y1="0" x2="25" y2="50" gradientUnits="userSpaceOnUse">
<stop stop-color="#030A31"/>
<stop offset="1" stop-color="#7D87BA" stop-opacity="0"/>
</linearGradient>
</defs>
</svg>
